<svg width="14" height="20" viewBox="0 0 14 20" fill="none" xmlns="http://www.w3.org/2000/svg">
<path fill-rule="evenodd" clip-rule="evenodd" d="M13.3996 18.3477L9.79239 15.6423C9.59794 15.9159 9.3912 16.1785 9.17289 16.4296L13.3996 19.5997L13.3996 18.3477ZM9.79298 4.35665L13.3996 1.65165L13.3995 0.399658L9.17311 3.56948L8.73707 3.89648L7.86462 4.55083L7.03047 5.17654L6.77071 5.37127L5.82556 6.08022L5.38813 6.4083L0.599609 9.99966L5.38813 13.591C5.60854 13.3381 5.80619 13.0674 5.97816 12.7816L2.26899 9.99966L2.44606 9.86682L5.97816 7.21782L6.4215 6.88525L7.37664 6.16892L8.47869 5.34237L9.35606 4.68428L9.79298 4.35665Z" fill="white"/>
<path fill-rule="evenodd" clip-rule="evenodd" d="M10.6214 14.3151L13.4005 16.3996L13.4005 15.2131L11.0348 13.4387C10.9138 13.7339 10.776 14.0265 10.6214 14.3151ZM11.0342 6.56093L13.4005 4.78614L13.4005 3.59961L10.6219 5.6836L10.2011 5.9992L9.34905 6.63817L8.26989 7.44749L7.32188 8.15849L6.87532 8.49348L4.86719 9.99958L6.87532 11.5057C6.97863 11.1737 7.04862 10.8288 7.08185 10.4739L6.44925 9.99958L7.08185 9.52515L7.57261 9.15699L8.58875 8.39499L8.91481 8.15052L9.72006 7.5465L10.6021 6.88499L11.0342 6.56093Z" fill="white"/>
<path fill-rule="evenodd" clip-rule="evenodd" d="M6.22067 13.832C4.89592 15.2138 2.87004 16.0972 0.599609 16.0972L0.599609 17.2C3.28064 17.2 5.67297 16.1567 7.23738 14.5251C7.47421 14.278 7.69202 14.0176 7.88902 13.7453C8.14369 13.3932 8.36341 13.0213 8.54447 12.6328C8.69135 12.3173 8.81272 11.9909 8.9062 11.6554C9.05451 11.124 9.13294 10.5697 9.13294 9.99997C9.13294 9.63012 9.09982 9.26676 9.03605 8.91188L7.81951 9.74115C7.82374 9.82698 7.82585 9.91327 7.82585 9.99997C7.82585 10.2951 7.80103 10.5853 7.75297 10.8692C7.69318 11.2232 7.59717 11.5675 7.4684 11.8993C7.31249 12.3012 7.10831 12.6847 6.86166 13.0449C6.67216 13.3218 6.45769 13.5849 6.22067 13.832ZM6.84063 5.08969C5.28292 3.68088 3.06315 2.80005 0.599609 2.80005L0.599609 3.9028C2.65242 3.9028 4.50537 4.62507 5.82088 5.78487L6.84063 5.08969Z" fill="white"/>
<path fill-rule="evenodd" clip-rule="evenodd" d="M7.71095 15.3862C6.03496 17.3285 3.47198 18.5704 0.599648 18.5704L0.599609 19.5997C3.81692 19.5997 6.68768 18.2087 8.56494 16.0331C8.78029 15.7835 8.98251 15.5237 9.17083 15.2544C9.41242 14.9086 9.63086 14.5474 9.82408 14.1726C9.97865 13.8729 10.1171 13.5645 10.2383 13.2486C10.6275 12.234 10.8396 11.14 10.8396 9.99973C10.8396 9.05328 10.6935 8.13886 10.4213 7.27513L9.48711 7.98273C9.6535 8.62956 9.74175 9.30491 9.74175 9.9996C9.74175 10.8909 9.59655 11.7504 9.32734 12.5585C9.21906 12.883 9.09102 13.1993 8.94416 13.506C8.7614 13.8875 8.54987 14.2542 8.31196 14.6038C8.12711 14.8754 7.92625 15.1366 7.71095 15.3862ZM0.599648 1.42891C3.27413 1.42891 5.68034 2.50556 7.35211 4.2218L8.20757 3.57392C6.33326 1.62483 3.61907 0.399658 0.599648 0.399658L0.599648 1.42891Z" fill="white"/>
</svg>
